<?xml version="1.0" encoding="utf-8"?>
<!-- Generator: Adobe Illustrator 26.2.1, SVG Export Plug-In . SVG Version: 6.00 Build 0)  -->
<svg version="1.1" id="a" xmlns="http://www.w3.org/2000/svg" xmlns:xlink="http://www.w3.org/1999/xlink" x="0px" y="0px"
	 viewBox="0 0 182 47" style="enable-background:new 0 0 182 47;" xml:space="preserve">
<style type="text/css">
	.st0{fill:#18284a;}
	.st1{opacity:0.5;fill:#18284a;enable-background:new    ;}
</style>
<g id="b" transform="translate(-32.68 -33.84)">
	<path id="c" class="st0" d="M48.8,76.9c-5.3,0.1-10.1-2.8-12.6-7.4c-2.4-4.8-2.4-10.5,0-15.3c1.2-2.2,2.9-4.1,5.1-5.4
		c2.3-1.3,4.9-2,7.5-2c1.7,0,3.5,0.3,5.1,1c1.5,0.6,3,1.5,4.2,2.6c1.2,1.1,2.1,2.4,2.8,3.9l0.2,0.6l-4.6,2.4l-0.3-0.6
		c-1.3-2.9-4.2-4.7-7.4-4.6c-1.6,0-3.2,0.4-4.6,1.3c-1.4,0.9-2.5,2.1-3.2,3.5c-0.8,1.6-1.2,3.3-1.2,5.1c0,1.8,0.4,3.5,1.2,5.1
		c0.7,1.4,1.9,2.7,3.2,3.5c1.4,0.9,2.9,1.3,4.6,1.3c1.6,0,3.1-0.4,4.4-1.3c1.3-0.8,2.3-2,2.9-3.4l0.3-0.6l4.6,2.5l-0.2,0.6
		c-0.6,1.5-1.6,2.8-2.8,3.8c-1.2,1.1-2.7,2-4.2,2.6C52.2,76.6,50.5,76.9,48.8,76.9L48.8,76.9L48.8,76.9z"/>
	<path id="d" class="st0" d="M97.7,76.3V56.6c0-1.8,0.6-3.5,1.6-4.9c0.9-1.1,1.9-2,3-2.8c2.2-1.3,4.6-1.9,7.1-1.9h1v5.2h-1.7
		c-1.6-0.1-3.2,0.5-4.3,1.6c-1.2,1.3-1.7,3-1.6,4.8v17.6L97.7,76.3L97.7,76.3z"/>
	<rect id="e" x="144.6" y="37.4" class="st0" width="5.2" height="38.9"/>
	<path id="f" class="st0" d="M198.3,76.9c-0.1,0-0.2,0-0.3,0h-0.2c-2.6,0-5.1-0.6-7.3-2c-2.1-1.3-3.9-3.2-5.1-5.4
		c-1.2-2.4-1.8-5-1.7-7.7V37.4h5.2v13.1c0.8-0.8,1.8-1.5,2.8-2.1c2-1.1,4.3-1.7,6.6-1.6c2.6,0,5.1,0.6,7.3,2
		c2.1,1.3,3.9,3.2,5.1,5.4c2.5,4.8,2.5,10.6,0,15.4c-1.2,2.2-2.9,4.1-5.1,5.4C203.4,76.3,200.8,77,198.3,76.9L198.3,76.9L198.3,76.9
		z M190.2,56.8c-1.6,3.2-1.6,7,0,10.2c0.4,0.7,0.9,1.4,1.4,2c0.6,0.6,1.2,1.1,1.9,1.5c1.4,0.9,3,1.3,4.7,1.3c1.6,0,3.2-0.4,4.6-1.3
		c1.4-0.9,2.5-2.1,3.2-3.5c1.6-3.2,1.6-6.9,0-10.1c-0.8-1.4-1.9-2.6-3.2-3.5c-1.4-0.9-3-1.3-4.6-1.3c-1.6,0-3.3,0.4-4.7,1.3
		c-1.3,0.8-2.3,1.9-3.1,3.2L190.2,56.8L190.2,56.8L190.2,56.8z"/>
	<path id="g" class="st0" d="M166.8,76.7c-2,0-4.1-0.3-6-1.1c-1.7-0.6-3.2-1.7-4.3-3c-0.9-1.1-1.5-2.4-1.6-3.8h0v-0.7
		c0-1.4,0.4-2.8,1-4c0.7-1.3,1.8-2.5,3.1-3.2c1.6-0.9,3.4-1.6,5.2-1.8l8.6-1.4c0.5-0.1,0.9-0.5,0.9-1c0.1-1.3-0.5-2.6-1.6-3.5
		c-1.2-1-2.7-1.4-4.2-1.4c-1.4,0-2.9,0.4-4.1,1.1c-1.1,0.7-2,1.8-2.6,3l-0.3,0.6l-4.7-2.5l0.2-0.5c0.6-1.3,1.5-2.5,2.6-3.4
		c1.2-1.1,2.7-1.9,4.2-2.5c1.4-0.5,3-0.8,4.5-0.8c2,0,3.9,0.4,5.7,1.2c1.6,0.8,2.9,2,3.9,3.5c0.9,1.5,1.4,3.3,1.4,5.1v12.2l0,0
		c-0.1,1.4-0.7,2.8-1.7,3.8c-1.2,1.3-2.7,2.4-4.3,3C170.9,76.4,168.9,76.7,166.8,76.7L166.8,76.7L166.8,76.7z M160.3,68.2
		c0,0.7,0.3,1.4,0.8,1.9c0.7,0.7,1.5,1.2,2.4,1.5c2.2,0.8,4.7,0.8,6.9,0c0.9-0.3,1.7-0.8,2.4-1.5c0.5-0.5,0.8-1.2,0.8-1.9v-5.9
		c-0.1,0-0.3,0.1-0.5,0.1l-7.8,1.3c-1.4,0.1-2.8,0.7-3.9,1.7C160.7,66.1,160.3,67,160.3,68.2L160.3,68.2L160.3,68.2L160.3,68.2z"/>
	<path id="h" class="st0" d="M78.7,67.2c-2.6,0-5.2-0.7-7.4-2c-2.2-1.3-4-3.1-5.3-5.4c-2.6-4.8-2.6-10.6,0-15.4
		c4.2-7,13.2-9.4,20.3-5.4c2.2,1.3,4,3.1,5.2,5.3c1.3,2.4,2,5,1.9,7.7c0,2.7-0.6,5.4-2,7.8c-1.3,2.2-3.1,4.1-5.3,5.3
		C83.8,66.6,81.3,67.2,78.7,67.2L78.7,67.2L78.7,67.2z M78.7,42.3c-1.7,0-3.3,0.4-4.7,1.3c-1.4,0.9-2.5,2.1-3.3,3.5
		c-0.8,1.5-1.3,3.3-1.2,5c0,1.8,0.4,3.5,1.3,5.1c0.8,1.5,1.9,2.7,3.3,3.6c2.9,1.7,6.5,1.7,9.3,0c1.4-0.9,2.5-2.1,3.3-3.6
		c0.8-1.6,1.3-3.3,1.2-5.1c0-1.8-0.4-3.5-1.2-5c-0.8-1.4-1.9-2.7-3.3-3.5C82,42.7,80.3,42.2,78.7,42.3L78.7,42.3L78.7,42.3z"/>
	<path id="i" class="st0" d="M125.3,81.5c-2.6,0-5.2-0.7-7.4-2c-2.2-1.3-4-3.2-5.3-5.4c-2.6-4.8-2.6-10.6,0-15.4
		c4.2-7,13.2-9.4,20.3-5.4c2.2,1.3,4,3.1,5.2,5.3c1.3,2.4,1.9,5,1.9,7.7c0.1,2.7-0.6,5.4-2,7.8c-1.3,2.2-3.1,4.1-5.3,5.3
		C130.4,80.8,127.9,81.5,125.3,81.5C125.3,81.5,125.3,81.5,125.3,81.5z M125.3,56.5c-1.7,0-3.3,0.4-4.7,1.3
		c-1.4,0.9-2.6,2.1-3.3,3.5c-0.8,1.5-1.3,3.3-1.2,5c0,1.8,0.4,3.5,1.3,5.1c0.8,1.5,1.9,2.7,3.3,3.6c2.9,1.7,6.5,1.7,9.3,0
		c1.4-0.9,2.5-2.1,3.3-3.6c0.8-1.6,1.3-3.3,1.2-5.1c0-1.8-0.4-3.5-1.2-5c-0.8-1.4-1.9-2.7-3.3-3.5C128.6,57,127,56.5,125.3,56.5
		L125.3,56.5L125.3,56.5z"/>
	<rect id="j" x="66.1" y="71.5" class="st1" width="25.2" height="4.8"/>
	<path id="k" class="st1" d="M136.5,42.3l-21.8,0v4.7l21.8,0V42.3z"/>
</g>
</svg>
